<svg width="24" height="24" viewBox="0 0 24 24" fill="none" xmlns="http://www.w3.org/2000/svg">
<path d="M12 15.5C12.9 15.5 13.721 15.2543 14.463 14.763C15.205 14.2717 15.7673 13.6173 16.15 12.8C16.2667 12.55 16.2667 12.3 16.15 12.05C16.0333 11.8 15.8417 11.625 15.575 11.525C15.325 11.425 15.0793 11.4293 14.838 11.538C14.5967 11.6467 14.4173 11.8257 14.3 12.075C14.1 12.525 13.7877 12.875 13.363 13.125C12.9383 13.375 12.484 13.5 12 13.5C11.516 13.5 11.062 13.375 10.638 13.125C10.214 12.875 9.90134 12.525 9.7 12.075C9.58334 11.825 9.40434 11.646 9.163 11.538C8.92167 11.43 8.67567 11.4257 8.425 11.525C8.15834 11.625 7.96667 11.8 7.85 12.05C7.73334 12.3 7.73334 12.55 7.85 12.8C8.23334 13.6167 8.796 14.271 9.538 14.763C10.28 15.255 11.1007 15.5007 12 15.5ZM10.138 10.137C10.3793 9.89567 10.5 9.6 10.5 9.25C10.5 8.9 10.379 8.604 10.137 8.362C9.895 8.12 9.59934 7.99933 9.25 8C8.90067 8.00067 8.60467 8.12167 8.362 8.363C8.11934 8.60433 7.99867 8.9 8 9.25C8.00134 9.6 8.12234 9.896 8.363 10.138C8.60367 10.38 8.89934 10.5007 9.25 10.5C9.60067 10.4993 9.89667 10.3783 10.138 10.137ZM15.638 10.137C15.8793 9.89633 16 9.60067 16 9.25C16 8.89933 15.879 8.60333 15.637 8.362C15.395 8.12067 15.0993 8 14.75 8C14.4007 8 14.1047 8.121 13.862 8.363C13.6193 8.605 13.4987 8.90067 13.5 9.25C13.5013 9.59933 13.6223 9.89533 13.863 10.138C14.1037 10.3807 14.3993 10.5013 14.75 10.5C15.1007 10.4987 15.3967 10.3777 15.638 10.137ZM12 5.1C12.5667 4.43333 13.2417 3.91667 14.025 3.55C14.8083 3.18333 15.6333 3 16.5 3C18.0667 3 19.375 3.525 20.425 4.575C21.475 5.625 22 6.93333 22 8.5C22 9.2 21.896 9.871 21.688 10.513C21.48 11.155 21.1217 11.8467 20.613 12.588C20.1043 13.3293 19.421 14.1417 18.563 15.025C17.705 15.9083 16.6257 16.9333 15.325 18.1L13.325 19.85C12.9417 20.1833 12.5 20.35 12 20.35C11.5 20.35 11.0583 20.1833 10.675 19.85L8.675 18.1C7.375 16.9333 6.29567 15.9083 5.437 15.025C4.57834 14.1417 3.895 13.3293 3.387 12.588C2.879 11.8467 2.52067 11.155 2.312 10.513C2.10334 9.871 1.99934 9.2 2 8.5C2 6.93333 2.525 5.625 3.575 4.575C4.625 3.525 5.93334 3 7.5 3C8.36667 3 9.19167 3.18333 9.975 3.55C10.7583 3.91667 11.4333 4.43333 12 5.1Z" fill="white"/>
</svg>
