<svg width="253" height="121" viewBox="0 0 253 121" fill="none" xmlns="http://www.w3.org/2000/svg">
<g clip-path="url(#clip0_2158_55)">
<path fill-rule="evenodd" clip-rule="evenodd" d="M116.871 79.9492C119.35 79.9492 121.52 80.5872 123.379 81.8633C125.257 83.1211 126.715 84.8802 127.754 87.1406C128.811 89.3828 129.34 91.9805 129.34 94.9336C129.34 97.9414 128.82 100.576 127.781 102.836C126.76 105.078 125.311 106.828 123.434 108.086C121.556 109.344 119.359 109.973 116.844 109.973C114.948 109.973 113.262 109.562 111.785 108.742C110.327 107.922 109.142 106.691 108.23 105.051H108.148V120.828H101.258V80.5234H108.039V84.543H108.121C109.033 83.0117 110.254 81.8633 111.785 81.0977C113.316 80.332 115.012 79.9492 116.871 79.9492ZM115.23 85.6641C112.97 85.6641 111.156 86.5117 109.789 88.207C108.44 89.8841 107.766 92.1263 107.766 94.9336C107.766 97.7409 108.44 99.9922 109.789 101.688C111.156 103.365 112.97 104.203 115.23 104.203C117.363 104.203 119.086 103.41 120.398 101.824C121.711 100.22 122.367 97.9232 122.367 94.9336C122.367 91.9622 121.711 89.6745 120.398 88.0703C119.086 86.4661 117.363 85.6641 115.23 85.6641Z" fill="url(#paint0_radial_2158_55)"/>
<path d="M15.7773 68C20.3346 68 23.944 69.1576 26.6055 71.4727C29.2852 73.7878 30.6797 76.9688 30.7891 81.0156H23.9258C23.7799 78.8646 22.9779 77.1784 21.5195 75.957C20.0612 74.7357 18.138 74.125 15.75 74.125C13.4896 74.125 11.6393 74.6536 10.1992 75.7109C8.75911 76.7682 8.03906 78.1263 8.03906 79.7852C8.03906 81.1523 8.60417 82.2643 9.73438 83.1211C10.8828 83.9596 12.7878 84.6797 15.4492 85.2812L19.5781 86.2383C23.8073 87.168 26.9062 88.5534 28.875 90.3945C30.8438 92.2357 31.8281 94.651 31.8281 97.6406C31.8281 100.174 31.1901 102.371 29.9141 104.23C28.638 106.09 26.8242 107.53 24.4727 108.551C22.1211 109.553 19.3411 110.055 16.1328 110.055C11.0833 110.055 7.1276 108.824 4.26562 106.363C1.42188 103.884 0 100.466 0 96.1094H7.08203C7.11849 98.5703 7.92969 100.493 9.51562 101.879C11.1198 103.264 13.3438 103.957 16.1875 103.957C18.7214 103.957 20.763 103.428 22.3125 102.371C23.862 101.296 24.6367 99.8646 24.6367 98.0781C24.6367 96.638 24.0534 95.4714 22.8867 94.5781C21.7201 93.6667 19.7786 92.901 17.0625 92.2812L12.6875 91.2969C8.6224 90.3672 5.6237 88.9909 3.69141 87.168C1.75911 85.3451 0.792969 83.0026 0.792969 80.1406C0.792969 77.7161 1.41276 75.5924 2.65234 73.7695C3.91016 71.9466 5.66016 70.5339 7.90234 69.5312C10.1628 68.5104 12.7878 68 15.7773 68Z" fill="url(#paint1_radial_2158_55)"/>
<path fill-rule="evenodd" clip-rule="evenodd" d="M48.6738 79.8672C51.4993 79.8672 53.9785 80.5052 56.1113 81.7812C58.2624 83.0573 59.9303 84.8346 61.1152 87.1133C62.3184 89.3737 62.9199 91.9987 62.9199 94.9883C62.9199 97.9779 62.3184 100.603 61.1152 102.863C59.9303 105.124 58.2624 106.892 56.1113 108.168C53.9785 109.426 51.4993 110.055 48.6738 110.055C45.8301 110.055 43.3418 109.426 41.209 108.168C39.0762 106.892 37.4082 105.124 36.2051 102.863C35.0202 100.603 34.4277 97.9779 34.4277 94.9883C34.4277 91.9987 35.0202 89.3737 36.2051 87.1133C37.4082 84.8346 39.0762 83.0573 41.209 81.7812C43.3418 80.5052 45.8301 79.8672 48.6738 79.8672ZM48.6738 85.6367C46.4499 85.6367 44.6816 86.4753 43.3691 88.1523C42.0566 89.8112 41.4004 92.0898 41.4004 94.9883C41.4004 97.8685 42.0566 100.138 43.3691 101.797C44.6816 103.456 46.4499 104.285 48.6738 104.285C50.8796 104.285 52.6387 103.456 53.9512 101.797C55.2637 100.138 55.9199 97.8685 55.9199 94.9883C55.9199 92.1081 55.2637 89.8294 53.9512 88.1523C52.6387 86.4753 50.8796 85.6367 48.6738 85.6367Z" fill="url(#paint2_radial_2158_55)"/>
<path fill-rule="evenodd" clip-rule="evenodd" d="M176.893 79.8672C179.718 79.8672 182.197 80.5052 184.33 81.7812C186.481 83.0573 188.149 84.8346 189.334 87.1133C190.537 89.3737 191.139 91.9987 191.139 94.9883C191.139 97.9779 190.537 100.603 189.334 102.863C188.149 105.124 186.481 106.892 184.33 108.168C182.197 109.426 179.718 110.055 176.893 110.055C174.049 110.055 171.561 109.426 169.428 108.168C167.295 106.892 165.627 105.124 164.424 102.863C163.239 100.603 162.646 97.9779 162.646 94.9883C162.646 91.9987 163.239 89.3737 164.424 87.1133C165.627 84.8346 167.295 83.0573 169.428 81.7812C171.561 80.5052 174.049 79.8672 176.893 79.8672ZM176.893 85.6367C174.669 85.6367 172.9 86.4753 171.588 88.1523C170.275 89.8112 169.619 92.0898 169.619 94.9883C169.619 97.8685 170.275 100.138 171.588 101.797C172.9 103.456 174.669 104.285 176.893 104.285C179.098 104.285 180.857 103.456 182.17 101.797C183.482 100.138 184.139 97.8685 184.139 94.9883C184.139 92.1081 183.482 89.8294 182.17 88.1523C180.857 86.4753 179.098 85.6367 176.893 85.6367Z" fill="url(#paint3_radial_2158_55)"/>
<path fill-rule="evenodd" clip-rule="evenodd" d="M238.254 79.8672C241.025 79.8672 243.449 80.5052 245.527 81.7812C247.605 83.0573 249.219 84.8255 250.367 87.0859C251.516 89.3281 252.09 91.9258 252.09 94.8789V96.7656H231.199C231.29 99.1172 231.983 101.013 233.277 102.453C234.572 103.893 236.376 104.613 238.691 104.613C240.423 104.613 241.854 104.24 242.984 103.492C244.115 102.727 244.88 101.724 245.281 100.484H251.734C251.37 102.362 250.568 104.021 249.328 105.461C248.107 106.901 246.566 108.031 244.707 108.852C242.848 109.654 240.788 110.055 238.527 110.055C235.647 110.055 233.15 109.408 231.035 108.113C228.921 106.819 227.289 105.042 226.141 102.781C225.01 100.503 224.445 97.9049 224.445 94.9883C224.445 92.0534 225.029 89.4557 226.195 87.1953C227.38 84.9167 229.012 83.1302 231.09 81.8359C233.168 80.5234 235.556 79.8672 238.254 79.8672ZM238.363 85.3359C236.358 85.3359 234.727 85.9375 233.469 87.1406C232.229 88.3255 231.491 89.9479 231.254 92.0078H245.473C245.254 89.9479 244.507 88.3255 243.23 87.1406C241.973 85.9375 240.35 85.3359 238.363 85.3359Z" fill="url(#paint4_radial_2158_55)"/>
<path d="M81.9785 74.207H79.3262C78.1413 74.207 77.3027 74.4531 76.8105 74.9453C76.3366 75.4375 76.0996 76.276 76.0996 77.4609V80.5234H85.2344V72.6484H92.1523V80.5234H98.0312V86.0742H92.1523V101.113C92.1523 102.152 92.362 102.872 92.7812 103.273C93.2005 103.656 93.9661 103.848 95.0781 103.848H98.0312V109.398H93.875C90.9401 109.398 88.7617 108.806 87.3398 107.621C85.9362 106.436 85.2344 104.604 85.2344 102.125V86.0742H76.0996V109.398H69.1816V86.0742H63.9863V80.5234H69.1816V76.3125C69.1816 73.8333 69.929 71.9375 71.4238 70.625C72.9368 69.3125 75.1152 68.6562 77.959 68.6562H81.9785V74.207Z" fill="url(#paint5_radial_2158_55)"/>
<path d="M139.896 84.7617C141.902 81.5534 144.818 79.9492 148.646 79.9492C151.673 79.9492 154.143 80.9245 156.057 82.875C157.989 84.8255 158.955 87.651 158.955 91.3516V109.398H152.037V92.4453C152.037 90.3307 151.527 88.7266 150.506 87.6328C149.485 86.5391 148.054 85.9922 146.213 85.9922C144.408 85.9922 142.904 86.5573 141.701 87.6875C140.498 88.8177 139.896 90.6133 139.896 93.0742V109.398H133.006V68.6562H139.896V84.7617Z" fill="url(#paint6_radial_2158_55)"/>
<path d="M210.445 79.9492C213.471 79.9492 215.941 80.9245 217.855 82.875C219.788 84.8255 220.754 87.651 220.754 91.3516V109.398H213.836V92.4453C213.836 90.3307 213.326 88.7266 212.305 87.6328C211.284 86.5391 209.853 85.9922 208.012 85.9922C206.207 85.9922 204.703 86.5573 203.5 87.6875C202.297 88.8177 201.695 90.6133 201.695 93.0742V109.398H194.805V80.5234H201.586V84.9531C203.591 81.6172 206.544 79.9492 210.445 79.9492Z" fill="url(#paint7_radial_2158_55)"/>
<path d="M67.4316 0C70.4941 0 73.265 0.601563 75.7441 1.80469C78.2233 3.00781 80.265 4.70313 81.8691 6.89062C83.4915 9.07812 84.5306 11.6576 84.9863 14.6289H77.6309C77.084 12.0404 75.9082 10.0352 74.1035 8.61328C72.2988 7.19141 70.0931 6.48047 67.4863 6.48047C65.0072 6.48047 62.8652 7.08203 61.0605 8.28516C59.2741 9.48828 57.8978 11.1836 56.9316 13.3711C55.9837 15.5586 55.5098 18.1198 55.5098 21.0547C55.5098 23.9714 55.9837 26.5234 56.9316 28.7109C57.8978 30.8802 59.2741 32.5664 61.0605 33.7695C62.847 34.9727 64.9889 35.5742 67.4863 35.5742C70.0749 35.5742 72.2715 34.8724 74.0762 33.4688C75.8809 32.0651 77.0749 30.069 77.6582 27.4805H84.9863C84.5306 30.4518 83.4915 33.0313 81.8691 35.2188C80.265 37.388 78.2233 39.0742 75.7441 40.2773C73.265 41.4622 70.4941 42.0547 67.4316 42.0547C63.6764 42.0547 60.3587 41.1888 57.4785 39.457C54.5983 37.7253 52.3379 35.2826 50.6973 32.1289C49.0566 28.9753 48.2363 25.2839 48.2363 21.0547C48.2363 16.7891 49.0566 13.0794 50.6973 9.92578C52.3379 6.77214 54.5983 4.32943 57.4785 2.59766C60.3587 0.865886 63.6764 5.86414e-07 67.4316 0Z" fill="url(#paint8_radial_2158_55)"/>
<path d="M19.7148 22.0664C20.0977 23.1966 20.5807 24.6732 21.1641 26.4961C21.7474 28.3008 22.276 29.9961 22.75 31.582C23.224 29.9961 23.7435 28.3008 24.3086 26.4961C24.8919 24.6732 25.375 23.1966 25.7578 22.0664L33.5508 0.65625H43.9961V41.3984H36.8867V20.6172C36.8867 19.1771 36.9141 17.4089 36.9688 15.3125C37.0234 13.2161 37.0781 11.1289 37.1328 9.05078C36.4036 11.3477 35.7109 13.5443 35.0547 15.6406C34.3984 17.7188 33.8516 19.3776 33.4141 20.6172L25.6484 41.3984H19.7422L11.9219 20.6172C11.5026 19.4323 10.9648 17.8555 10.3086 15.8867C9.67057 13.8997 8.99609 11.8125 8.28516 9.625C8.33984 11.6302 8.38542 13.6263 8.42188 15.6133C8.47656 17.582 8.50391 19.25 8.50391 20.6172V41.3984H1.39453V0.65625H11.7852L19.7148 22.0664Z" fill="url(#paint9_radial_2158_55)"/>
<path d="M111.209 23.3789C111.701 24.1445 112.348 25.2292 113.15 26.6328C113.952 28.0365 114.764 29.4674 115.584 30.9258C115.529 29.3945 115.484 27.8724 115.447 26.3594C115.429 24.8281 115.42 23.6615 115.42 22.8594V0.65625H122.666V41.3984H114.846L101.939 20.9453C101.356 20.0339 100.554 18.7214 99.5332 17.0078C98.5124 15.276 97.3822 13.3073 96.1426 11.1016C96.2337 13.362 96.2884 15.3398 96.3066 17.0352C96.3249 18.7305 96.334 20.0247 96.334 20.918V41.3984H89.1152V0.65625H96.9082L111.209 23.3789Z" fill="url(#paint10_radial_2158_55)"/>
</g>
<defs>
<radialGradient id="paint0_radial_2158_55" cx="0" cy="0" r="1" gradientTransform="matrix(-116.5 -140.5 76.4296 -281.249 117.504 136.398)" gradientUnits="userSpaceOnUse">
<stop offset="0.206731" stop-color="white"/>
<stop offset="1" stop-color="#171717"/>
</radialGradient>
<radialGradient id="paint1_radial_2158_55" cx="0" cy="0" r="1" gradientTransform="matrix(-116.5 -140.5 76.4296 -281.249 117.504 136.398)" gradientUnits="userSpaceOnUse">
<stop offset="0.206731" stop-color="white"/>
<stop offset="1" stop-color="#171717"/>
</radialGradient>
<radialGradient id="paint2_radial_2158_55" cx="0" cy="0" r="1" gradientTransform="matrix(-116.5 -140.5 76.4296 -281.249 117.504 136.398)" gradientUnits="userSpaceOnUse">
<stop offset="0.206731" stop-color="white"/>
<stop offset="1" stop-color="#171717"/>
</radialGradient>
<radialGradient id="paint3_radial_2158_55" cx="0" cy="0" r="1" gradientTransform="matrix(-116.5 -140.5 76.4296 -281.249 117.504 136.398)" gradientUnits="userSpaceOnUse">
<stop offset="0.206731" stop-color="white"/>
<stop offset="1" stop-color="#171717"/>
</radialGradient>
<radialGradient id="paint4_radial_2158_55" cx="0" cy="0" r="1" gradientTransform="matrix(-116.5 -140.5 76.4296 -281.249 117.504 136.398)" gradientUnits="userSpaceOnUse">
<stop offset="0.206731" stop-color="white"/>
<stop offset="1" stop-color="#171717"/>
</radialGradient>
<radialGradient id="paint5_radial_2158_55" cx="0" cy="0" r="1" gradientTransform="matrix(-116.5 -140.5 76.4296 -281.249 117.504 136.398)" gradientUnits="userSpaceOnUse">
<stop offset="0.206731" stop-color="white"/>
<stop offset="1" stop-color="#171717"/>
</radialGradient>
<radialGradient id="paint6_radial_2158_55" cx="0" cy="0" r="1" gradientTransform="matrix(-116.5 -140.5 76.4296 -281.249 117.504 136.398)" gradientUnits="userSpaceOnUse">
<stop offset="0.206731" stop-color="white"/>
<stop offset="1" stop-color="#171717"/>
</radialGradient>
<radialGradient id="paint7_radial_2158_55" cx="0" cy="0" r="1" gradientTransform="matrix(-116.5 -140.5 76.4296 -281.249 117.504 136.398)" gradientUnits="userSpaceOnUse">
<stop offset="0.206731" stop-color="white"/>
<stop offset="1" stop-color="#171717"/>
</radialGradient>
<radialGradient id="paint8_radial_2158_55" cx="0" cy="0" r="1" gradientTransform="matrix(-116.5 -140.5 76.4296 -281.249 117.504 136.398)" gradientUnits="userSpaceOnUse">
<stop offset="0.206731" stop-color="white"/>
<stop offset="1" stop-color="#171717"/>
</radialGradient>
<radialGradient id="paint9_radial_2158_55" cx="0" cy="0" r="1" gradientTransform="matrix(-116.5 -140.5 76.4296 -281.249 117.504 136.398)" gradientUnits="userSpaceOnUse">
<stop offset="0.206731" stop-color="white"/>
<stop offset="1" stop-color="#171717"/>
</radialGradient>
<radialGradient id="paint10_radial_2158_55" cx="0" cy="0" r="1" gradientTransform="matrix(-116.5 -140.5 76.4296 -281.249 117.504 136.398)" gradientUnits="userSpaceOnUse">
<stop offset="0.206731" stop-color="white"/>
<stop offset="1" stop-color="#171717"/>
</radialGradient>
<clipPath id="clip0_2158_55">
<rect width="252.09" height="120.828" fill="white"/>
</clipPath>
</defs>
</svg>
